<svg width="5832" height="5832" viewBox="0 0 5832 5832" fill="none" xmlns="http://www.w3.org/2000/svg">
<rect width="5832" height="5832" rx="750" fill="#6AE5B1"/>
<path fill-rule="evenodd" clip-rule="evenodd" d="M3154.61 668.015L3154.6 668.022L3883.54 969.96L3883.41 970.273C3883.43 970.303 3883.45 970.336 3883.47 970.372C3883.56 970.534 3883.69 970.77 3883.86 971.078C3884.2 971.695 3884.71 972.604 3885.36 973.797C3886.67 976.182 3888.58 979.707 3891.06 984.319C3896.01 993.543 3903.2 1007.12 3912.18 1024.65C3930.16 1059.71 3955.36 1110.6 3984.38 1174.09C4042.39 1301.04 4115.76 1478.62 4177.09 1681.08C4240.05 1888.87 4213.42 2140.37 4144.17 2403.74C4074.78 2667.62 3961.6 2946.95 3847.91 3211.79C3734.33 3476.39 3600.77 3786.99 3444.37 4070.48C3288.21 4353.54 3107.87 4612.28 2899.55 4771.31C2693.21 4928.85 2511.45 5012.93 2380.72 5057.64C2315.37 5079.98 2262.82 5092.48 2226.36 5099.41C2208.13 5102.87 2193.93 5104.94 2184.16 5106.16C2179.28 5106.76 2175.51 5107.15 2172.89 5107.4C2171.59 5107.52 2170.57 5107.6 2169.85 5107.66C2169.49 5107.69 2169.21 5107.71 2169 5107.73C2168.89 5107.73 2168.81 5107.74 2168.74 5107.74C2168.7 5107.75 2168.68 5107.75 2168.65 5107.75C2168.64 5107.75 2168.62 5107.75 2168.62 5107.75C2168.61 5107.75 2168.61 5107.74 2168.6 5107.58L2168.58 5107.63L1439.64 4805.7L1872.46 3760.79L2570.29 4049.84C2582.13 4037.16 2598.1 4019.81 2617.31 3998.4C2660.84 3949.88 2720.94 3880.55 2787.16 3797.4C2919.85 3630.82 3076.12 3409.99 3173.36 3190.57C3270.39 2971.62 3328.23 2675.81 3361.74 2433.14C3378.45 2312.12 3389.03 2204.91 3395.44 2127.97C3398.11 2095.79 3400.06 2068.92 3401.42 2048.56L2701.73 1758.74L2701.73 1758.74L2655.91 1739.73L3108.42 648.855L3154.61 668.015ZM2721.25 1712.71L3429.02 2005.87L3429.02 2005.87C3453.99 2007.06 3453.99 2007.07 3453.99 2007.08C3453.99 2007.09 3453.99 2007.1 3453.99 2007.11C3453.99 2007.14 3453.98 2007.18 3453.98 2007.22C3453.98 2007.32 3453.97 2007.47 3453.96 2007.66C3453.95 2007.81 3453.94 2007.99 3453.93 2008.21C3453.92 2008.41 3453.91 2008.63 3453.9 2008.88C3453.89 2009.02 3453.88 2009.17 3453.88 2009.32C3453.8 2010.79 3453.69 2012.96 3453.53 2015.79C3453.22 2021.46 3452.73 2029.81 3452.05 2040.57C3450.67 2062.1 3448.49 2093.3 3445.26 2132.12C3438.8 2209.74 3428.13 2317.87 3411.27 2439.98C3377.63 2683.58 3319.07 2985.18 3219.07 3210.83C3119.27 3436.02 2959.93 3660.74 2826.27 3828.56C2759.32 3912.61 2698.57 3982.69 2654.53 4031.79C2632.5 4056.34 2614.65 4075.65 2602.28 4088.85C2596.09 4095.45 2591.28 4100.52 2588 4103.95C2586.36 4105.67 2585.1 4106.98 2584.25 4107.86C2583.82 4108.3 2583.5 4108.64 2583.27 4108.87C2583.16 4108.98 2583.08 4109.07 2583.02 4109.13C2582.99 4109.16 2582.97 4109.19 2582.95 4109.2C2582.94 4109.21 2582.93 4109.22 2582.93 4109.22C2582.93 4109.22 2582.93 4109.22 2582.36 4108.68L2582.26 4108.92L1899.51 3826.12L1504.97 4778.64L2176.36 5056.74C2176.89 5056.67 2177.44 5056.61 2178 5056.54C2186.74 5055.45 2199.89 5053.55 2217.03 5050.29C2251.3 5043.78 2301.56 5031.86 2364.54 5010.33C2490.46 4967.26 2667.39 4885.66 2869.21 4731.57C3069.07 4578.99 3245.34 4327.74 3400.59 4046.33C3555.61 3765.35 3688.24 3457.01 3801.97 3192.07C3915.59 2927.38 4027.45 2651.01 4095.81 2391.03C4164.31 2130.52 4188.14 1889.99 4129.24 1695.57C4068.73 1495.81 3996.26 1320.39 3938.9 1194.88C3910.23 1132.14 3885.37 1081.94 3867.69 1047.46C3859.26 1031.01 3852.46 1018.15 3847.68 1009.22L3135.47 714.217L3154.16 669.095L2721.25 1712.71Z" fill="white"/>
<path d="M2721.25 1712.71L3429.02 2005.87L3429.02 2005.87C3453.99 2007.06 3453.99 2007.07 3453.99 2007.08L3453.99 2007.11L3453.98 2007.22L3453.96 2007.66L3453.93 2008.21L3453.9 2008.88L3453.88 2009.32C3453.8 2010.79 3453.69 2012.96 3453.53 2015.79C3453.22 2021.46 3452.73 2029.81 3452.05 2040.57C3450.67 2062.1 3448.49 2093.3 3445.26 2132.12C3438.8 2209.74 3428.13 2317.87 3411.27 2439.98C3377.63 2683.58 3319.07 2985.18 3219.07 3210.83C3119.27 3436.02 2959.93 3660.74 2826.27 3828.56C2759.32 3912.61 2698.57 3982.69 2654.53 4031.79C2632.5 4056.34 2614.65 4075.65 2602.28 4088.85C2596.09 4095.45 2591.28 4100.52 2588 4103.95C2586.36 4105.67 2585.1 4106.98 2584.25 4107.86C2583.82 4108.3 2583.5 4108.64 2583.27 4108.87L2583.02 4109.13L2582.95 4109.2L2582.93 4109.22C2582.93 4109.22 2582.93 4109.22 2582.36 4108.68L2582.26 4108.92L1899.51 3826.12L1504.97 4778.64L2176.36 5056.74C2176.89 5056.67 2177.44 5056.61 2178 5056.54C2186.74 5055.45 2199.89 5053.55 2217.03 5050.29C2251.3 5043.78 2301.56 5031.86 2364.54 5010.33C2490.46 4967.26 2667.39 4885.66 2869.21 4731.57C3069.07 4578.99 3245.34 4327.74 3400.59 4046.33C3555.61 3765.35 3688.24 3457.01 3801.97 3192.07C3915.59 2927.38 4027.45 2651.01 4095.81 2391.03C4164.31 2130.52 4188.14 1889.99 4129.24 1695.57C4068.73 1495.81 3996.26 1320.39 3938.9 1194.88C3910.23 1132.14 3885.37 1081.94 3867.69 1047.46C3859.26 1031.01 3852.46 1018.15 3847.68 1009.22L3135.47 714.217L3154.16 669.095L2721.25 1712.71Z" fill="#06BF53"/>
</svg>
